{"title":"A.Night.On.The.Town.1983.DVDRip.XViD-SPRiNTER","uid":6578974,"size":1467322882,"categoryP":"video","categoryS":"movies","magnet":"?xt=urn:btih:e67648f1b901087f122318a5d89c4ce0693d21da&amp;dn=A.Night.On.The.Town.1983.DVDRip.XViD-SPRiNTER&amp;tr=udp%3A%2F%2Ftracker.openbittorrent.com%3A80&amp;tr=udp%3A%2F%2Fopen.demonii.com%3A1337&amp;tr=udp%3A%2F%2Ftracker.coppersurfer.tk%3A6969&amp;tr=udp%3A%2F%2Fexodus.desync.com%3A6969","seeders":0,"leechers":1,"uploader":"sceneline","files":104,"time":1312328108,"description":"- &lt;a href=&quot;\nhttp://www.Speed.Cd&quot; rel=&quot;nofollow&quot; target=&quot;_NEW&quot;&gt;\nhttp://www.Speed.Cd&lt;/a&gt; \n       &lt;a href=&quot;\nhttp://www.Speed.Cd&quot; rel=&quot;nofollow&quot; target=&quot;_NEW&quot;&gt;\nhttp://www.Speed.Cd&lt;/a&gt;      fast  and The Hottest Private Tracker on the net\n\n(((--Registration will be open on june every weekend--)))\n\nPlease Seed back to make the speed Faster!!!\n\n------------------nfo--------------------------\n-\n                                                     \n                                                   \n                                                         \n                                                          \n                                                           \n                                                          \n                                                          \n                                                          \n                                                           \n                                                         \n                                                          \n                                                        \n                                                      \n                                     \n                                                 \n                                                   \n                                             \n                                              \n                                                     \n                                                      \n                                                      \n                                                      \n                                                    \n                                                     \n                                                   \n                                                     \n                                                     \n                                                      \n                                                     \n                                                      \n                                                    \n                 ARTiCHOKE                        \n                                                \n                      \n                                                        \n                                                      \n                                                      \n                                               \n                                          \n                                                   \n                                            \n                                                    \n                                                       \n                                                        \n                                                      \n                                                \n                                                        \n                                                 \n                                              \n                                                  \n                                                \n                                                  \n                                        \n\n      \n                                \n      SPRiNTER proudly presents...     \n                                \n      \n \n A.Night.On.The.Town.1983.DVDRip.XViD-SPRiNTER\n &lt;a href=&quot; http://www.imdb.com/title/tt0170309/&quot; rel=&quot;nofollow&quot; target=&quot;_NEW&quot;&gt; http://www.imdb.com/title/tt0170309/&lt;/a&gt;\n \n\n Date: 2011.08\n\n \n\n      \n                 \n      Release notes     \n                 \n      \n\n \n\n\tEnjoy!\n\n\n      \n           \n     Greetings    \n           \n      \n\n\nNTX FiCO HNR CiNEFiLE AEN HUMANiSM TASTE 0MNiDVD\n\n\n      \n           \n      Details     \n           \n      \n\nFormat                           : AVI\nFormat/Info                      : Audio Video Interleave\nFile size                        : 1.37 GiB\nDuration                         : 1h 48mn\nOverall bit rate                 : 1 806 Kbps\nWriting application              : VirtualDubMod 1.5.10.2 (build 2540/release)\nWriting library                  : VirtualDubMod build 2540/release\n\nVideo\nID                               : 0\nFormat                           : MPEG-4 Visual\nFormat profile                   : Advanced Simple@L5\nFormat settings, BVOP            : 2\nFormat settings, QPel            : No\nFormat settings, GMC             : No warppoints\nFormat settings, Matrix          : Default (H.263)\nCodec ID                         : XVID\nCodec ID/Hint                    : XviD\nDuration                         : 1h 48mn\nBit rate                         : 1 643 Kbps\nWidth                            : 512 pixels\nHeight                           : 400 pixels\nDisplay aspect ratio             : 1.280\nFrame rate                       : 25.000 fps\nColor space                      : YUV\nChroma subsampling               : 4:2:0\nBit depth                        : 8 bits\nScan type                        : Progressive\nCompression mode                 : Lossy\nBits/(Pixel*Frame)               : 0.321\nStream size                      : 1.24 GiB (91%)\nWriting library                  : XviD 61\n\nAudio\nID                               : 1\nFormat                           : MPEG Audio\nFormat version                   : Version 1\nFormat profile                   : Layer 3\nMode                             : Joint stereo\nMode extension                   : MS Stereo\nCodec ID                         : 55\nCodec ID/Hint                    : MP3\nDuration                         : 1h 48mn\nBit rate mode                    : Variable\nBit rate                         : 150 Kbps\nMinimum bit rate                 : 128 Kbps\nChannel(s)                       : 2 channels\nSampling rate                    : 48.0 KHz\nCompression mode                 : Lossy\nStream size                      : 116 MiB (8%)\nAlignment                        : Aligned on interleaves\nInterleave, duration             : 24 ms (0.60 video frame)\nInterleave, preload duration     : 416 ms\nWriting library                  : LAME3.95 \nEncoding settings                : -m j -V 4 -q 3 -lowpass 18 --vbr-old -b 128","torrent":{"xt":"urn:btih:e67648f1b901087f122318a5d89c4ce0693d21da","amp;dn":"A.Night.On.The.Town.1983.DVDRip.XViD-SPRiNTER","amp;tr":["udp%3A%2F%2Ftracker.openbittorrent.com%3A80","udp%3A%2F%2Fopen.demonii.com%3A1337","udp%3A%2F%2Ftracker.coppersurfer.tk%3A6969","udp%3A%2F%2Fexodus.desync.com%3A6969"],"infoHash":"e67648f1b901087f122318a5d89c4ce0693d21da","infoHashBuffer":{"type":"Buffer","data":[230,118,72,241,185,1,8,127,18,35,24,165,216,156,76,224,105,61,33,218]},"announce":[],"urlList":[]}}